<svg width="786" height="358" viewBox="0 0 786 358" fill="none" xmlns="http://www.w3.org/2000/svg">
<path d="M213.892 78.7501C247.25 75.2184 264.402 115.786 243.017 139.826L177.719 205.664C176.592 207.383 177.122 209.186 178.173 210.81C182.036 216.785 198.464 225.141 189.767 233.809C186.543 237.024 182.211 236.446 178.855 233.795C174.537 230.386 163.364 218.863 161.793 213.93C158.114 202.388 165.821 195.197 172.937 187.622C190.875 168.515 212.42 150.549 229.529 131.068C239.841 119.332 240.087 101.081 223.83 95.0831C209.92 89.9465 204.197 99.5616 195.917 107.87C179.693 124.156 163.383 140.356 147.112 156.59C143.093 159.492 137.648 158.886 135.295 154.265C132.744 149.261 135.688 145.81 138.851 142.174C153.64 125.159 172.696 109.352 188.342 92.7207C192.366 88.4457 197.583 83.8204 198.53 77.8175C201.096 61.5745 185.113 48.3803 170.016 55.9313C142.581 81.5385 116.718 109.021 89.833 135.291C81.3541 140.176 73.1781 130.168 79.9007 122.991L156.363 46.07C181.937 24.1412 218.158 46.9742 213.892 78.7501Z" fill="#071A2B"/>
<path d="M177.312 67.0238C185.265 65.594 189.531 75.6637 183.604 80.8902C166.636 100.272 144.939 117.471 128.19 136.73C110.891 156.623 133.942 181.766 154.488 166.342L212.501 108.367C219.058 103.818 226.813 110.687 223.934 117.907C223.357 119.355 221.169 121.751 220.057 123.024C202.673 142.918 180.361 161.296 161.968 180.45C129.416 202.251 91.5094 165.22 111.72 132.095C131.636 110.597 152.737 90.0935 173.401 69.2678C174.49 68.302 175.844 67.2841 177.307 67.0238H177.312Z" fill="#071A2B"/>
<path d="M286.205 313.32C325.923 281.505 351.358 232.597 351.358 177.748C351.358 81.8652 273.63 4.13696 177.748 4.13696C81.8649 4.13696 4.13672 81.8652 4.13672 177.748C4.13672 233.143 30.0812 282.479 70.482 314.267" stroke="#071A2B" stroke-width="8.2737"/>
<circle cx="260.841" cy="278.188" r="25.1478" stroke="#071A2B" stroke-width="8.2737"/>
<circle cx="97.684" cy="278.188" r="25.1478" stroke="#071A2B" stroke-width="8.2737"/>
<path d="M302.275 343.027C302.275 321.106 283.724 303.336 260.842 303.336C237.959 303.336 219.408 321.106 219.408 343.027" stroke="#071A2B" stroke-width="8.2737" stroke-linecap="round"/>
<circle cx="179.262" cy="288.035" r="25.1478" stroke="#071A2B" stroke-width="8.2737"/>
<path d="M139.117 343.027C139.117 321.106 120.566 303.336 97.6833 303.336C74.8003 303.336 56.25 321.106 56.25 343.027" stroke="#071A2B" stroke-width="8.2737" stroke-linecap="round"/>
<path d="M220.696 352.874C220.696 330.953 202.145 313.183 179.262 313.183C156.379 313.183 137.829 330.953 137.829 352.874" stroke="#071A2B" stroke-width="8.2737" stroke-linecap="round"/>
<path d="M407.053 67.2502H425.637L445.265 115.137H446.1L465.728 67.2502H484.312V138.523H469.695V92.133H469.103L450.659 138.175H440.706L422.261 91.959H421.669V138.523H407.053V67.2502ZM559.612 92.2026H544.37C544.091 90.2306 543.523 88.4789 542.664 86.9477C541.806 85.3932 540.704 84.0708 539.358 82.9803C538.013 81.8899 536.458 81.0547 534.695 80.4747C532.955 79.8946 531.064 79.6046 529.022 79.6046C525.333 79.6046 522.12 80.5211 519.382 82.3539C516.645 84.1636 514.522 86.8085 513.014 90.2886C511.506 93.7455 510.752 97.9448 510.752 102.887C510.752 107.968 511.506 112.236 513.014 115.693C514.545 119.15 516.679 121.76 519.417 123.524C522.155 125.287 525.322 126.169 528.918 126.169C530.936 126.169 532.804 125.902 534.521 125.368C536.261 124.835 537.804 124.057 539.149 123.036C540.495 121.992 541.609 120.728 542.49 119.243C543.395 117.758 544.022 116.065 544.37 114.162L559.612 114.232C559.218 117.503 558.232 120.658 556.654 123.698C555.1 126.714 553 129.417 550.355 131.806C547.734 134.173 544.602 136.052 540.959 137.444C537.34 138.813 533.245 139.497 528.674 139.497C522.317 139.497 516.633 138.059 511.622 135.182C506.634 132.305 502.689 128.141 499.789 122.688C496.912 117.236 495.474 110.636 495.474 102.887C495.474 95.1143 496.936 88.5021 499.859 83.0499C502.782 77.5978 506.75 73.4448 511.761 70.5911C516.772 67.7142 522.41 66.2758 528.674 66.2758C532.804 66.2758 536.632 66.8558 540.159 68.0158C543.708 69.1759 546.852 70.8695 549.59 73.0968C552.327 75.3009 554.555 78.0038 556.272 81.2055C558.012 84.4072 559.125 88.0729 559.612 92.2026ZM570.418 138.523V67.2502H598.538C603.943 67.2502 608.549 68.2827 612.354 70.3475C616.159 72.3892 619.059 75.2313 621.054 78.8738C623.072 82.4931 624.082 86.6693 624.082 91.4022C624.082 96.1352 623.061 100.311 621.019 103.931C618.977 107.55 616.019 110.369 612.145 112.387C608.293 114.406 603.63 115.415 598.155 115.415H580.232V103.339H595.719C598.619 103.339 601.008 102.84 602.888 101.843C604.79 100.822 606.205 99.4181 607.133 97.6316C608.085 95.822 608.56 93.7455 608.56 91.4022C608.56 89.0357 608.085 86.9709 607.133 85.2076C606.205 83.4211 604.79 82.0407 602.888 81.0663C600.985 80.0686 598.572 79.5698 595.649 79.5698H585.487V138.523H570.418ZM422.122 162.25V233.523H407.053V162.25H422.122ZM473.184 182.748C472.905 179.941 471.711 177.76 469.599 176.205C467.488 174.651 464.623 173.874 461.003 173.874C458.544 173.874 456.468 174.222 454.774 174.918C453.08 175.591 451.781 176.53 450.876 177.737C449.995 178.943 449.554 180.312 449.554 181.843C449.507 183.119 449.774 184.233 450.354 185.184C450.958 186.135 451.781 186.959 452.825 187.655C453.869 188.328 455.076 188.919 456.445 189.43C457.813 189.917 459.275 190.335 460.829 190.683L467.233 192.214C470.342 192.91 473.195 193.838 475.794 194.998C478.392 196.158 480.643 197.585 482.545 199.279C484.448 200.972 485.921 202.968 486.965 205.264C488.032 207.561 488.578 210.195 488.601 213.164C488.578 217.526 487.464 221.308 485.26 224.509C483.079 227.688 479.924 230.159 475.794 231.922C471.687 233.662 466.734 234.532 460.934 234.532C455.18 234.532 450.169 233.651 445.9 231.887C441.654 230.124 438.336 227.514 435.947 224.057C433.58 220.577 432.339 216.273 432.223 211.146H446.805C446.967 213.535 447.651 215.531 448.858 217.132C450.088 218.709 451.723 219.904 453.765 220.716C455.83 221.505 458.161 221.899 460.76 221.899C463.312 221.899 465.528 221.528 467.407 220.786C469.309 220.043 470.783 219.011 471.827 217.688C472.871 216.366 473.393 214.846 473.393 213.129C473.393 211.529 472.917 210.183 471.966 209.093C471.038 208.002 469.669 207.074 467.859 206.308C466.073 205.543 463.88 204.847 461.282 204.22L453.521 202.272C447.512 200.81 442.768 198.525 439.288 195.416C435.807 192.307 434.079 188.119 434.102 182.852C434.079 178.537 435.227 174.767 437.547 171.542C439.891 168.317 443.104 165.8 447.187 163.99C451.271 162.181 455.911 161.276 461.108 161.276C466.398 161.276 471.015 162.181 474.959 163.99C478.926 165.8 482.012 168.317 484.216 171.542C486.42 174.767 487.557 178.502 487.626 182.748H473.184ZM498.737 233.523V162.25H526.856C532.238 162.25 536.832 163.213 540.637 165.139C544.465 167.041 547.377 169.744 549.372 173.247C551.391 176.727 552.4 180.822 552.4 185.532C552.4 190.265 551.379 194.337 549.337 197.747C547.296 201.135 544.338 203.733 540.463 205.543C536.612 207.352 531.948 208.257 526.473 208.257H507.646V196.147H524.037C526.914 196.147 529.304 195.752 531.206 194.963C533.109 194.174 534.524 192.991 535.452 191.414C536.403 189.836 536.879 187.875 536.879 185.532C536.879 183.166 536.403 181.17 535.452 179.546C534.524 177.922 533.097 176.693 531.171 175.857C529.269 174.999 526.868 174.57 523.967 174.57H513.805V233.523H498.737ZM537.227 201.088L554.94 233.523H538.305L520.975 201.088H537.227ZM575.334 233.523H559.186L583.791 162.25H603.21L627.779 233.523H611.631L593.779 178.537H593.222L575.334 233.523ZM574.325 205.508H612.467V217.271H574.325V205.508ZM636.358 233.523V162.25H684.383V174.674H651.427V191.657H681.912V204.081H651.427V221.099H684.522V233.523H636.358ZM696.364 233.523V162.25H711.432V221.099H741.988V233.523H696.364Z" fill="#071A2B"/>
<path d="M409.115 311.181H402.084L414.885 274.817H423.017L435.837 311.181H428.806L419.093 282.275H418.809L409.115 311.181ZM409.346 296.923H428.522V302.214H409.346V296.923ZM447.214 274.817V311.181H440.627V274.817H447.214ZM497.875 287.086H491.235C491.045 285.997 490.696 285.033 490.187 284.192C489.678 283.34 489.045 282.618 488.287 282.026C487.53 281.434 486.666 280.99 485.695 280.694C484.736 280.387 483.7 280.233 482.588 280.233C480.611 280.233 478.859 280.73 477.332 281.724C475.805 282.707 474.61 284.151 473.745 286.057C472.881 287.951 472.449 290.265 472.449 292.999C472.449 295.781 472.881 298.125 473.745 300.03C474.621 301.924 475.817 303.357 477.332 304.327C478.859 305.286 480.605 305.765 482.57 305.765C483.659 305.765 484.677 305.623 485.624 305.339C486.583 305.043 487.441 304.611 488.199 304.043C488.968 303.475 489.613 302.777 490.134 301.948C490.667 301.119 491.034 300.172 491.235 299.107L497.875 299.143C497.627 300.871 497.088 302.492 496.26 304.008C495.443 305.523 494.372 306.86 493.046 308.02C491.72 309.169 490.169 310.068 488.394 310.719C486.618 311.358 484.647 311.678 482.481 311.678C479.285 311.678 476.432 310.938 473.923 309.459C471.414 307.979 469.437 305.842 467.993 303.049C466.549 300.255 465.826 296.905 465.826 292.999C465.826 289.081 466.554 285.731 468.01 282.949C469.466 280.156 471.449 278.019 473.959 276.54C476.468 275.06 479.309 274.32 482.481 274.32C484.505 274.32 486.388 274.604 488.128 275.172C489.868 275.741 491.418 276.575 492.78 277.676C494.141 278.765 495.259 280.103 496.135 281.689C497.023 283.263 497.603 285.062 497.875 287.086ZM536.401 292.999C536.401 296.917 535.667 300.273 534.199 303.067C532.743 305.848 530.755 307.979 528.233 309.459C525.724 310.938 522.877 311.678 519.693 311.678C516.509 311.678 513.656 310.938 511.134 309.459C508.625 307.967 506.636 305.831 505.169 303.049C503.713 300.255 502.985 296.905 502.985 292.999C502.985 289.081 503.713 285.731 505.169 282.949C506.636 280.156 508.625 278.019 511.134 276.54C513.656 275.06 516.509 274.32 519.693 274.32C522.877 274.32 525.724 275.06 528.233 276.54C530.755 278.019 532.743 280.156 534.199 282.949C535.667 285.731 536.401 289.081 536.401 292.999ZM529.778 292.999C529.778 290.241 529.346 287.915 528.482 286.021C527.63 284.115 526.446 282.677 524.931 281.706C523.416 280.724 521.67 280.233 519.693 280.233C517.716 280.233 515.97 280.724 514.455 281.706C512.94 282.677 511.75 284.115 510.886 286.021C510.034 287.915 509.608 290.241 509.608 292.999C509.608 295.757 510.034 298.089 510.886 299.995C511.75 301.889 512.94 303.327 514.455 304.309C515.97 305.28 517.716 305.765 519.693 305.765C521.67 305.765 523.416 305.28 524.931 304.309C526.446 303.327 527.63 301.889 528.482 299.995C529.346 298.089 529.778 295.757 529.778 292.999ZM542.629 274.817H550.69L561.485 301.167H561.911L572.707 274.817H580.768V311.181H574.447V286.199H574.109L564.06 311.074H559.337L549.287 286.145H548.95V311.181H542.629V274.817ZM587.941 274.817H596.002L606.798 301.167H607.224L618.019 274.817H626.08V311.181H619.759V286.199H619.422L609.372 311.074H604.649L594.6 286.145H594.262V311.181H587.941V274.817ZM656.176 274.817H662.764V298.574C662.764 301.179 662.148 303.469 660.917 305.446C659.698 307.423 657.981 308.967 655.768 310.08C653.554 311.181 650.968 311.731 648.009 311.731C645.037 311.731 642.445 311.181 640.232 310.08C638.018 308.967 636.302 307.423 635.082 305.446C633.863 303.469 633.254 301.179 633.254 298.574V274.817H639.841V298.024C639.841 299.539 640.172 300.889 640.835 302.072C641.51 303.256 642.457 304.185 643.676 304.86C644.895 305.523 646.34 305.854 648.009 305.854C649.678 305.854 651.122 305.523 652.341 304.86C653.572 304.185 654.519 303.256 655.182 302.072C655.845 300.889 656.176 299.539 656.176 298.024V274.817ZM699.806 274.817V311.181H693.947L676.813 286.412H676.511V311.181H669.924V274.817H675.818L692.935 299.604H693.255V274.817H699.806ZM713.571 274.817V311.181H706.984V274.817H713.571ZM719.107 280.339V274.817H748.12V280.339H736.88V311.181H730.346V280.339H719.107ZM751.227 274.817H758.666L767.562 290.904H767.917L776.813 274.817H784.252L771.024 297.616V311.181H764.455V297.616L751.227 274.817Z" fill="#071A2B"/>
</svg>
